<?xml version="1.0" encoding="UTF-8"?>
<!-- Created with Inkscape (http://www.inkscape.org/) -->
<svg width="230" height="96" version="1.1" viewBox="0 0 60.854 25.4" xmlns="http://www.w3.org/2000/svg">
 <defs>
  <filter id="filter18597" x="-.010803" y="-.068991" width="1.0275" height="1.1725" color-interpolation-filters="sRGB">
   <feFlood flood-color="rgb(0,0,0)" flood-opacity=".49804" result="flood"/>
   <feComposite in="flood" in2="SourceGraphic" operator="in" result="composite1"/>
   <feGaussianBlur in="composite1" result="blur" stdDeviation="1"/>
   <feOffset dx="1.3" dy="1.2" result="offset"/>
   <feComposite in="SourceGraphic" in2="offset" result="composite2"/>
  </filter>
 </defs>
 <g stroke-linecap="round">
  <path d="m9.7396 20.589a6.6092 24.784 77.514 0 0 18.204-1.8589 6.6092 24.784 77.514 0 0 22.769-11.812 6.6092 24.784 77.514 0 0-25.627-1.094 6.6092 24.784 77.514 0 0-17.279 5.9964 6.6092 24.784 77.514 0 1 0.09276 0.0054 6.6092 24.784 77.514 0 1 0.37591 0.02685 6.6092 24.784 77.514 0 1 0.36717 0.03037 6.6092 24.784 77.514 0 1 0.35915 0.03479 6.6092 24.784 77.514 0 1 0.35051 0.03882 6.6092 24.784 77.514 0 1 0.34126 0.04246 6.6092 24.784 77.514 0 1 0.33313 0.04638 6.6092 24.784 77.514 0 1 0.32388 0.05001 6.6092 24.784 77.514 0 1 0.31424 0.05427 6.6092 24.784 77.514 0 1 0.30549 0.05779 6.6092 24.784 77.514 0 1 0.29574 0.06154 6.6092 24.784 77.514 0 1 0.28598 0.06529 6.6092 24.784 77.514 0 1 0.27622 0.06904 6.6092 24.784 77.514 0 1 0.26647 0.07278 6.6092 24.784 77.514 0 1 0.2566 0.07603 6.6092 24.784 77.514 0 1 0.24634 0.07989 6.6092 24.784 77.514 0 1 0.23608 0.08375 6.6092 24.784 77.514 0 1 0.22571 0.0871 6.6092 24.784 77.514 0 1 0.21483 0.09057 6.6092 24.784 77.514 0 1 0.20446 0.09393 6.6092 24.784 77.514 0 1 0.1942 0.09779 6.6092 24.784 77.514 0 1 0.18321 0.10075 6.6092 24.784 77.514 0 1 0.17172 0.10382 6.6092 24.784 77.514 0 1 0.16146 0.10768 6.6092 24.784 77.514 0 1 0.15036 0.11014 6.6092 24.784 77.514 0 1 0.13898 0.11372 6.6092 24.784 77.514 0 1 0.1281 0.11719 6.6092 24.784 77.514 0 1 0.1165 0.11976 6.6092 24.784 77.514 0 1 0.10551 0.12272 6.6092 24.784 77.514 0 1 0.09402 0.12579 6.6092 24.784 77.514 0 1 0.08303 0.12876 6.6092 24.784 77.514 0 1 0.07142 0.13132 6.6092 24.784 77.514 0 1 0.05993 0.1344 6.6092 24.784 77.514 0 1 0.04822 0.13646 6.6092 24.784 77.514 0 1 0.03723 0.13943 6.6092 24.784 77.514 0 1 0.04155 0.43381 6.6092 24.784 77.514 0 1-0.06233 0.4547 6.6092 24.784 77.514 0 1-0.16553 0.47384 6.6092 24.784 77.514 0 1-0.26868 0.49086 6.6092 24.784 77.514 0 1-0.37026 0.50542 6.6092 24.784 77.514 0 1-0.46992 0.51902 6.6092 24.784 77.514 0 1-0.56875 0.52926 6.6092 24.784 77.514 0 1-0.66376 0.5376 6.6092 24.784 77.514 0 1-0.75659 0.54386 6.6092 24.784 77.514 0 1-0.84633 0.54732 6.6092 24.784 77.514 0 1-0.93226 0.54889 6.6092 24.784 77.514 0 1-0.41977 0.22686z" fill="#88ff92" stroke="#000" stroke-width=".021167" style="paint-order:stroke fill markers"/>
  <text transform="matrix(.26458 0 0 .26458 -1.3553 5.37)" fill="#e9a751" filter="url(#filter18597)" font-family="sans-serif" font-size="36px" font-weight="bold" stroke-width=".08" style="font-variant-caps:normal;font-variant-east-asian:normal;font-variant-ligatures:normal;font-variant-numeric:normal;paint-order:stroke fill markers;shape-inside:url(#rect6030);white-space:pre" xml:space="preserve"><tspan fill="#e9a751" font-family="sans-serif" font-size="36px" font-weight="bold" style="font-variant-caps:normal;font-variant-east-asian:normal;font-variant-ligatures:normal;font-variant-numeric:normal">BudgetMax</tspan></text>
 </g>
</svg>
