<?xml version="1.0" encoding="UTF-8"?>
<!-- Created with Inkscape (http://www.inkscape.org/) -->
<svg width="230" height="96" version="1.1" viewBox="0 0 60.854 25.4" xmlns="http://www.w3.org/2000/svg">
 <defs>
  <filter id="filter18597" x="-.010803" y="-.068991" width="1.0275" height="1.1725" color-interpolation-filters="sRGB">
   <feFlood flood-color="rgb(0,0,0)" flood-opacity=".49804" result="flood"/>
   <feComposite in="flood" in2="SourceGraphic" operator="in" result="composite1"/>
   <feGaussianBlur in="composite1" result="blur" stdDeviation="1"/>
   <feOffset dx="1.3" dy="1.2" result="offset"/>
   <feComposite in="SourceGraphic" in2="offset" result="composite2"/>
  </filter>
 </defs>
 <g stroke-linecap="round">
  <path d="m9.7396 20.589a6.6092 24.784 77.514 0 0 18.204-1.8589 6.6092 24.784 77.514 0 0 22.769-11.812 6.6092 24.784 77.514 0 0-25.627-1.094 6.6092 24.784 77.514 0 0-17.279 5.9964 6.6092 24.784 77.514 0 1 0.09276 0.0054 6.6092 24.784 77.514 0 1 0.37591 0.02685 6.6092 24.784 77.514 0 1 0.36717 0.03037 6.6092 24.784 77.514 0 1 0.35915 0.03479 6.6092 24.784 77.514 0 1 0.35051 0.03882 6.6092 24.784 77.514 0 1 0.34126 0.04246 6.6092 24.784 77.514 0 1 0.33313 0.04638 6.6092 24.784 77.514 0 1 0.32388 0.05001 6.6092 24.784 77.514 0 1 0.31424 0.05427 6.6092 24.784 77.514 0 1 0.30549 0.05779 6.6092 24.784 77.514 0 1 0.29574 0.06154 6.6092 24.784 77.514 0 1 0.28598 0.06529 6.6092 24.784 77.514 0 1 0.27622 0.06904 6.6092 24.784 77.514 0 1 0.26647 0.07278 6.6092 24.784 77.514 0 1 0.2566 0.07603 6.6092 24.784 77.514 0 1 0.24634 0.07989 6.6092 24.784 77.514 0 1 0.23608 0.08375 6.6092 24.784 77.514 0 1 0.22571 0.0871 6.6092 24.784 77.514 0 1 0.21483 0.09057 6.6092 24.784 77.514 0 1 0.20446 0.09393 6.6092 24.784 77.514 0 1 0.1942 0.09779 6.6092 24.784 77.514 0 1 0.18321 0.10075 6.6092 24.784 77.514 0 1 0.17172 0.10382 6.6092 24.784 77.514 0 1 0.16146 0.10768 6.6092 24.784 77.514 0 1 0.15036 0.11014 6.6092 24.784 77.514 0 1 0.13898 0.11372 6.6092 24.784 77.514 0 1 0.1281 0.11719 6.6092 24.784 77.514 0 1 0.1165 0.11976 6.6092 24.784 77.514 0 1 0.10551 0.12272 6.6092 24.784 77.514 0 1 0.09402 0.12579 6.6092 24.784 77.514 0 1 0.08303 0.12876 6.6092 24.784 77.514 0 1 0.07142 0.13132 6.6092 24.784 77.514 0 1 0.05993 0.1344 6.6092 24.784 77.514 0 1 0.04822 0.13646 6.6092 24.784 77.514 0 1 0.03723 0.13943 6.6092 24.784 77.514 0 1 0.04155 0.43381 6.6092 24.784 77.514 0 1-0.06233 0.4547 6.6092 24.784 77.514 0 1-0.16553 0.47384 6.6092 24.784 77.514 0 1-0.26868 0.49086 6.6092 24.784 77.514 0 1-0.37026 0.50542 6.6092 24.784 77.514 0 1-0.46992 0.51902 6.6092 24.784 77.514 0 1-0.56875 0.52926 6.6092 24.784 77.514 0 1-0.66376 0.5376 6.6092 24.784 77.514 0 1-0.75659 0.54386 6.6092 24.784 77.514 0 1-0.84633 0.54732 6.6092 24.784 77.514 0 1-0.93226 0.54889 6.6092 24.784 77.514 0 1-0.41977 0.22686z" fill="#88ff92" stroke="#000" stroke-width=".021167" style="paint-order:stroke fill markers"/>
  <g transform="matrix(.26458 0 0 .26458 -1.3553 6.4283)" fill="#e9a751" filter="url(#filter18597)" stroke-width=".08" style="paint-order:stroke fill markers;shape-inside:url(#rect6030);white-space:pre" aria-label="BudgetMax">
   <path d="m31.979 32.635q0 1.8984-0.77344 3.3926-0.75586 1.4941-2.0918 2.4785-1.5469 1.1602-3.4102 1.6523-1.8457 0.49219-4.6934 0.49219h-11.426v-26.174h10.16q3.1641 0 4.623 0.21094 1.4766 0.21094 2.918 0.93164 1.4941 0.75586 2.2148 2.0391 0.73828 1.2656 0.73828 2.9004 0 1.8984-1.002 3.3574-1.002 1.4414-2.8301 2.25v0.14062q2.5664 0.50977 4.0605 2.1094 1.5117 1.5996 1.5117 4.2188zm-8.6484-10.758q0-0.65039-0.33398-1.3008-0.31641-0.65039-1.1426-0.9668-0.73828-0.28125-1.8457-0.29883-1.0898-0.03516-3.0762-0.03516h-0.63281v5.5371h1.0547q1.5996 0 2.7246-0.05273t1.7754-0.35156q0.91406-0.4043 1.1953-1.0371 0.28125-0.65039 0.28125-1.4941zm1.6523 10.652q0-1.248-0.49219-1.916-0.47461-0.68555-1.6348-1.0195-0.79102-0.22852-2.1797-0.24609-1.3887-0.01758-2.9004-0.01758h-1.4766v6.5215h0.49219q2.8477 0 4.0781-0.01758 1.2305-0.01758 2.2676-0.45703 1.0547-0.43945 1.4414-1.1602 0.4043-0.73828 0.4043-1.6875z"/>
   <path d="m56.324 40.651h-6.3281v-2.1797q-1.7578 1.3359-3.2168 2.0391-1.459 0.68555-3.4805 0.68555-3.2695 0-5.0449-1.8809-1.7578-1.8809-1.7578-5.5547v-12.85h6.3633v9.791q0 1.4941 0.08789 2.4961 0.10547 0.98438 0.45703 1.6348 0.33398 0.65039 1.002 0.94922 0.68555 0.29883 1.8984 0.29883 0.80859 0 1.793-0.29883 0.98438-0.29883 1.8984-0.87891v-13.992h6.3281z"/>
   <path d="m81.496 40.651h-6.3281v-2.0566q-1.6348 1.3359-3.0586 1.9688-1.4238 0.63281-3.2871 0.63281-3.6035 0-5.7656-2.7773-2.1621-2.7773-2.1621-7.4883 0-2.5137 0.7207-4.4473 0.73828-1.9512 2.0039-3.3398 1.1953-1.3184 2.9004-2.0391 1.7051-0.73828 3.4102-0.73828 1.7754 0 2.9004 0.38672 1.1426 0.36914 2.3379 0.94922v-8.4023h6.3281zm-6.3281-5.4492v-9.6855q-0.66797-0.28125-1.4062-0.4043-0.73828-0.12305-1.3535-0.12305-2.4961 0-3.7441 1.5645-1.248 1.5469-1.248 4.3066 0 2.9004 1.002 4.2188 1.002 1.3008 3.2168 1.3008 0.86133 0 1.8281-0.31641 0.9668-0.33398 1.7051-0.86133z"/>
   <path d="m106.67 38.383q0 2.7773-0.79102 4.6758-0.79101 1.8984-2.2148 2.9707-1.4238 1.0898-3.4453 1.5645-2.0039 0.49219-4.5352 0.49219-2.0566 0-4.0605-0.24609-1.9863-0.24609-3.4453-0.59766v-4.9395h0.77344q1.1602 0.45703 2.8301 0.82617 1.6699 0.38672 2.9883 0.38672 1.7578 0 2.8477-0.33398 1.1074-0.31641 1.6875-0.91406 0.54492-0.5625 0.79102-1.4414 0.24609-0.87891 0.24609-2.1094v-0.36914q-1.1426 0.93164-2.5312 1.4766t-3.0938 0.54492q-4.1484 0-6.3984-2.4961-2.25-2.4961-2.25-7.5938 0-2.4434 0.68555-4.2188 0.68555-1.7754 1.9336-3.0938 1.1602-1.2305 2.8477-1.916 1.7051-0.68555 3.4805-0.68555 1.5996 0 2.9004 0.38672 1.3184 0.36914 2.3906 1.0371l0.22851-0.87891h6.1348zm-6.3281-3.9551v-8.9473q-0.54492-0.22852-1.3359-0.35156-0.79102-0.14062-1.4238-0.14062-2.4961 0-3.7441 1.4414-1.248 1.4238-1.248 3.9902 0 2.8477 1.0547 3.9727 1.0723 1.125 3.1641 1.125 0.94922 0 1.8633-0.29883 0.91406-0.29883 1.6699-0.79102z"/>
   <path d="m132.09 31.949h-14.484q0.14063 2.3203 1.7578 3.5508 1.6348 1.2305 4.7988 1.2305 2.0039 0 3.8848-0.7207t2.9707-1.5469h0.70313v5.0801q-2.1445 0.86133-4.043 1.248t-4.2012 0.38672q-5.9414 0-9.1055-2.6719t-3.1641-7.6113q0-4.8867 2.9883-7.7344 3.0059-2.8652 8.2266-2.8652 4.8164 0 7.2422 2.4434 2.4258 2.4258 2.4258 6.9961zm-6.293-3.709q-0.0527-1.9863-0.98438-2.9883-0.93164-1.002-2.9004-1.002-1.8281 0-3.0059 0.94922-1.1777 0.94922-1.3184 3.041z"/>
   <path d="m149.17 40.475q-1.0195 0.26367-2.1621 0.4043-1.1426 0.1582-2.7949 0.1582-3.6914 0-5.502-1.4941-1.793-1.4941-1.793-5.1152v-9.2285h-2.6016v-4.2891h2.6016v-5.6426h6.3281v5.6426h5.9238v4.2891h-5.9238v6.9961q0 1.0371 0.0176 1.8105 0.0176 0.77344 0.28125 1.3887 0.2461 0.61523 0.86133 0.98438 0.63282 0.35156 1.8281 0.35156 0.49219 0 1.2832-0.21094 0.80859-0.21094 1.125-0.38672h0.52734z"/>
   <path d="m180.74 40.651h-6.7148v-17.525l-4.8516 11.373h-4.6582l-4.8516-11.373v17.525h-6.3633v-26.174h7.8398l5.8887 13.131 5.8711-13.131h7.8398z"/>
   <path d="m199.02 35.5v-4.1133q-1.2832 0.10547-2.7774 0.29883-1.4941 0.17578-2.2676 0.42188-0.94922 0.29883-1.459 0.87891-0.49219 0.5625-0.49219 1.4941 0 0.61524 0.10547 1.002 0.10547 0.38672 0.52735 0.73828 0.40429 0.35156 0.96679 0.52734 0.5625 0.1582 1.7578 0.1582 0.94921 0 1.916-0.38672 0.98438-0.38672 1.7227-1.0195zm0 3.0586q-0.50977 0.38672-1.2656 0.93164t-1.4238 0.86133q-0.93164 0.42188-1.9336 0.61523-1.002 0.21094-2.1973 0.21094-2.8125 0-4.7109-1.7402-1.8984-1.7402-1.8984-4.4473 0-2.1621 0.9668-3.5332 0.96679-1.3711 2.7422-2.1621 1.7578-0.79102 4.3594-1.125 2.6016-0.33398 5.3965-0.49219v-0.10547q0-1.6348-1.3359-2.25-1.3359-0.63281-3.9375-0.63281-1.5645 0-3.3398 0.5625-1.7754 0.54492-2.5488 0.84375h-0.58007v-4.7637q1.002-0.26367 3.252-0.61524 2.2676-0.36914 4.5352-0.36914 5.3965 0 7.7871 1.6699 2.4082 1.6523 2.4082 5.2031v13.43h-6.2754z"/>
   <path d="m231.75 40.651h-7.3828l-4.2188-5.9062-4.3242 5.9062h-7.2422l7.7871-9.8613-7.6641-9.8789h7.3828l4.1484 5.8008 4.166-5.8008h7.2598l-7.6816 9.7207z"/>
  </g>
 </g>
</svg>
