<?xml version="1.0" encoding="UTF-8" standalone="no"?>
<!-- Created with Inkscape (http://www.inkscape.org/) -->

<svg
   width="230"
   height="96"
   viewBox="0 0 60.854168 25.399999"
   version="1.1"
   id="svg5"
   inkscape:version="1.2.2 (b0a8486, 2022-12-01)"
   sodipodi:docname="logo.svg"
   inkscape:export-filename="../src/images/logo.svg"
   inkscape:export-xdpi="438.86"
   inkscape:export-ydpi="438.86"
   xmlns:inkscape="http://www.inkscape.org/namespaces/inkscape"
   xmlns:sodipodi="http://sodipodi.sourceforge.net/DTD/sodipodi-0.dtd"
   xmlns="http://www.w3.org/2000/svg"
   xmlns:svg="http://www.w3.org/2000/svg">
  <sodipodi:namedview
     id="namedview7"
     pagecolor="#505050"
     bordercolor="#eeeeee"
     borderopacity="1"
     inkscape:pageshadow="0"
     inkscape:pageopacity="0"
     inkscape:pagecheckerboard="true"
     inkscape:document-units="px"
     showgrid="false"
     units="px"
     inkscape:zoom="3.0744668"
     inkscape:cx="65.865079"
     inkscape:cy="77.249167"
     inkscape:window-width="1490"
     inkscape:window-height="933"
     inkscape:window-x="1524"
     inkscape:window-y="157"
     inkscape:window-maximized="0"
     inkscape:current-layer="layer1"
     inkscape:showpageshadow="0"
     inkscape:deskcolor="#505050" />
  <defs
     id="defs2">
    <rect
       x="6.2448939"
       y="7.8061174"
       width="240.42842"
       height="74.938727"
       id="rect6030" />
    <filter
       style="color-interpolation-filters:sRGB;"
       inkscape:label="Drop Shadow"
       id="filter18597"
       x="-0.010802542"
       y="-0.068991073"
       width="1.0274565"
       height="1.1724777">
      <feFlood
         flood-opacity="0.498039"
         flood-color="rgb(0,0,0)"
         result="flood"
         id="feFlood18587" />
      <feComposite
         in="flood"
         in2="SourceGraphic"
         operator="in"
         result="composite1"
         id="feComposite18589" />
      <feGaussianBlur
         in="composite1"
         stdDeviation="1"
         result="blur"
         id="feGaussianBlur18591" />
      <feOffset
         dx="1.3"
         dy="1.2"
         result="offset"
         id="feOffset18593" />
      <feComposite
         in="SourceGraphic"
         in2="offset"
         operator="over"
         result="composite2"
         id="feComposite18595" />
    </filter>
  </defs>
  <g
     inkscape:label="Layer 1"
     inkscape:groupmode="layer"
     id="layer1">
    <path
       id="path846"
       style="display:inline;fill:#88ff92;fill-opacity:1;stroke:#000000;stroke-width:0.0211667;stroke-linecap:round;paint-order:stroke fill markers"
       d="M 9.7395851,20.58928 A 6.6091794,24.784422 77.513771 0 0 27.943352,18.730369 6.6091794,24.784422 77.513771 0 0 50.712694,6.9187411 6.6091794,24.784422 77.513771 0 0 25.085487,5.8246952 6.6091794,24.784422 77.513771 0 0 7.806401,11.821079 a 6.6091794,24.784422 77.513771 0 1 0.09276,0.0054 6.6091794,24.784422 77.513771 0 1 0.375914,0.02685 6.6091794,24.784422 77.513771 0 1 0.3671674,0.03037 6.6091794,24.784422 77.513771 0 1 0.3591488,0.03479 6.6091794,24.784422 77.513771 0 1 0.3505139,0.03882 6.6091794,24.784422 77.513771 0 1 0.3412628,0.04246 6.6091794,24.784422 77.513771 0 1 0.3331331,0.04638 6.6091794,24.784422 77.513771 0 1 0.323881,0.05001 6.6091794,24.784422 77.513771 0 1 0.314238,0.05427 6.6091794,24.784422 77.513771 0 1 0.30549,0.05779 6.6091794,24.784422 77.513771 0 1 0.295736,0.06154 6.6091794,24.784422 77.513771 0 1 0.285979,0.06529 6.6091794,24.784422 77.513771 0 1 0.276224,0.06904 6.6091794,24.784422 77.513771 0 1 0.266468,0.07278 6.6091794,24.784422 77.513771 0 1 0.256601,0.07603 6.6091794,24.784422 77.513771 0 1 0.246341,0.07989 6.6091794,24.784422 77.513771 0 1 0.236081,0.08375 6.6091794,24.784422 77.513771 0 1 0.225708,0.0871 6.6091794,24.784422 77.513771 0 1 0.214832,0.09057 6.6091794,24.784422 77.513771 0 1 0.204461,0.09393 6.6091794,24.784422 77.513771 0 1 0.1942,0.09779 6.6091794,24.784422 77.513771 0 1 0.183211,0.100748 6.6091794,24.784422 77.513771 0 1 0.17172,0.103822 6.6091794,24.784422 77.513771 0 1 0.161458,0.107681 6.6091794,24.784422 77.513771 0 1 0.15036,0.11014 6.6091794,24.784422 77.513771 0 1 0.138978,0.113718 6.6091794,24.784422 77.513771 0 1 0.128101,0.117186 6.6091794,24.784422 77.513771 0 1 0.116497,0.119756 6.6091794,24.784422 77.513771 0 1 0.105509,0.122718 6.6091794,24.784422 77.513771 0 1 0.09402,0.125792 6.6091794,24.784422 77.513771 0 1 0.08303,0.128755 6.6091794,24.784422 77.513771 0 1 0.07142,0.131324 6.6091794,24.784422 77.513771 0 1 0.05993,0.134399 6.6091794,24.784422 77.513771 0 1 0.04822,0.136463 6.6091794,24.784422 77.513771 0 1 0.03723,0.139427 6.6091794,24.784422 77.513771 0 1 0.04155,0.433809 6.6091794,24.784422 77.513771 0 1 -0.06233,0.454695 6.6091794,24.784422 77.513771 0 1 -0.165534,0.473844 6.6091794,24.784422 77.513771 0 1 -0.268681,0.490863 6.6091794,24.784422 77.513771 0 1 -0.370256,0.505417 6.6091794,24.784422 77.513771 0 1 -0.469925,0.519019 6.6091794,24.784422 77.513771 0 1 -0.56875,0.529259 6.6091794,24.784422 77.513771 0 1 -0.663763,0.537596 6.6091794,24.784422 77.513771 0 1 -0.756589,0.543863 6.6091794,24.784422 77.513771 0 1 -0.846328,0.547325 6.6091794,24.784422 77.513771 0 1 -0.932256,0.548887 6.6091794,24.784422 77.513771 0 1 -0.4197661,0.226862 z"
       sodipodi:insensitive="true"
       inkscape:label="back" />
    <g
       aria-label="BudgetMax"
       transform="matrix(0.26458333,0,0,0.26458333,-1.3553141,6.4282916)"
       id="text6028"
       style="font-weight:bold;font-size:36px;-inkscape-font-specification:'sans-serif, Bold';white-space:pre;shape-inside:url(#rect6030);display:inline;opacity:1;fill:#e9a751;stroke-width:0.08;stroke-linecap:round;paint-order:stroke fill markers;filter:url(#filter18597)"
       inkscape:label="text">
      <path
         d="m 31.978516,32.634907 q 0,1.898438 -0.773438,3.392578 -0.755859,1.494141 -2.091797,2.478516 -1.546875,1.160156 -3.410156,1.652344 -1.845703,0.492187 -4.693359,0.492187 H 9.5839844 V 14.476704 H 19.744141 q 3.164062,0 4.623046,0.210937 1.476563,0.210938 2.917969,0.931641 1.494141,0.755859 2.214844,2.039063 0.738281,1.265625 0.738281,2.90039 0,1.898438 -1.001953,3.357422 -1.001953,1.441406 -2.830078,2.25 v 0.140625 q 2.566406,0.509766 4.060547,2.109375 1.511719,1.599609 1.511719,4.21875 z M 23.330078,21.877095 q 0,-0.650391 -0.333984,-1.300782 -0.316407,-0.65039 -1.142578,-0.966797 -0.738282,-0.28125 -1.845704,-0.298828 -1.089843,-0.03516 -3.076171,-0.03516 h -0.632813 v 5.537109 h 1.054688 q 1.599609,0 2.724609,-0.05273 1.125,-0.05273 1.775391,-0.351562 0.914062,-0.404297 1.195312,-1.03711 0.28125,-0.65039 0.28125,-1.49414 z m 1.652344,10.652343 q 0,-1.248047 -0.492188,-1.916015 -0.474609,-0.685547 -1.634765,-1.019532 -0.791016,-0.228515 -2.179688,-0.246093 -1.388672,-0.01758 -2.90039,-0.01758 h -1.476563 v 6.521484 h 0.492188 q 2.847656,0 4.078125,-0.01758 1.230468,-0.01758 2.267578,-0.457031 1.054687,-0.439454 1.441406,-1.160157 0.404297,-0.738281 0.404297,-1.6875 z"
         id="path517" />
      <path
         d="m 56.324219,40.650532 h -6.328125 v -2.179687 q -1.757813,1.335937 -3.216797,2.039062 -1.458985,0.685547 -3.480469,0.685547 -3.269531,0 -5.044922,-1.880859 -1.757812,-1.88086 -1.757812,-5.554688 V 20.910298 h 6.363281 v 9.791015 q 0,1.494141 0.08789,2.496094 0.105468,0.984375 0.457031,1.634766 0.333984,0.65039 1.001953,0.949218 0.685547,0.298829 1.898437,0.298829 0.808594,0 1.792969,-0.298829 0.984375,-0.298828 1.898438,-0.878906 V 20.910298 h 6.328125 z"
         id="path519" />
      <path
         d="m 81.496094,40.650532 h -6.328125 v -2.056641 q -1.634766,1.335938 -3.058594,1.96875 -1.423828,0.632813 -3.287109,0.632813 -3.603516,0 -5.765625,-2.777344 -2.16211,-2.777344 -2.16211,-7.488281 0,-2.513672 0.720703,-4.447266 0.738282,-1.951172 2.003907,-3.339843 1.195312,-1.31836 2.90039,-2.039063 1.705078,-0.738281 3.410156,-0.738281 1.775391,0 2.900391,0.386719 1.142578,0.36914 2.337891,0.949218 V 13.29897 h 6.328125 z M 75.167969,35.201313 V 25.515766 Q 74.5,25.234516 73.761719,25.11147 q -0.738282,-0.123047 -1.353516,-0.123047 -2.496094,0 -3.744141,1.564453 -1.248046,1.546875 -1.248046,4.30664 0,2.900391 1.001953,4.21875 1.001953,1.300782 3.216797,1.300782 0.861328,0 1.828125,-0.316407 0.966796,-0.333984 1.705078,-0.861328 z"
         id="path521" />
      <path
         d="m 106.66797,38.382954 q 0,2.777344 -0.79102,4.675781 -0.79101,1.898438 -2.21484,2.970703 -1.42383,1.089844 -3.44531,1.564453 -2.003909,0.492188 -4.535159,0.492188 -2.056641,0 -4.060547,-0.246094 -1.986328,-0.246094 -3.445313,-0.597656 v -4.939453 h 0.773438 q 1.160156,0.457031 2.830078,0.826172 1.669922,0.386718 2.988281,0.386718 1.757813,0 2.847656,-0.333984 1.107422,-0.316406 1.6875,-0.914062 0.544922,-0.5625 0.791016,-1.441407 0.24609,-0.878906 0.24609,-2.109375 v -0.36914 q -1.142574,0.93164 -2.531246,1.476562 -1.388672,0.544922 -3.09375,0.544922 -4.148438,0 -6.398438,-2.496094 -2.25,-2.496093 -2.25,-7.59375 0,-2.443359 0.685547,-4.21875 0.685547,-1.77539 1.933594,-3.09375 1.160156,-1.230468 2.847656,-1.916015 1.705078,-0.685547 3.480469,-0.685547 1.599609,0 2.90039,0.386719 1.31836,0.36914 2.390628,1.037109 l 0.22851,-0.878906 h 6.13477 z m -6.32813,-3.955078 V 25.48061 q -0.544918,-0.228515 -1.335934,-0.351562 -0.791015,-0.140625 -1.423828,-0.140625 -2.496094,0 -3.744141,1.441406 -1.248046,1.423828 -1.248046,3.990234 0,2.847657 1.054687,3.972657 1.072266,1.125 3.164063,1.125 0.949218,0 1.863281,-0.298829 0.914062,-0.298828 1.669918,-0.791015 z"
         id="path523" />
      <path
         d="m 132.08594,31.94936 h -14.48438 q 0.14063,2.320313 1.75782,3.550781 1.63476,1.230469 4.79882,1.230469 2.00391,0 3.88477,-0.720703 1.88086,-0.720703 2.9707,-1.546875 h 0.70313 v 5.080078 q -2.14453,0.861328 -4.04297,1.248047 -1.89844,0.386719 -4.20117,0.386719 -5.94141,0 -9.10547,-2.671875 -3.16406,-2.671875 -3.16406,-7.611328 0,-4.886719 2.98828,-7.734375 3.00586,-2.865235 8.22656,-2.865235 4.81641,0 7.24219,2.44336 2.42578,2.425781 2.42578,6.996093 z m -6.29297,-3.708984 q -0.0527,-1.986328 -0.98438,-2.988281 -0.93164,-1.001954 -2.90039,-1.001954 -1.82812,0 -3.00586,0.949219 -1.17773,0.949219 -1.31836,3.041016 z"
         id="path525" />
      <path
         d="m 149.17187,40.474751 q -1.01953,0.263672 -2.1621,0.404297 -1.14258,0.158203 -2.79493,0.158203 -3.6914,0 -5.50195,-1.494141 -1.79297,-1.49414 -1.79297,-5.115234 V 25.19936 h -2.60156 v -4.289062 h 2.60156 V 15.26772 h 6.32813 v 5.642578 h 5.92382 v 4.289062 h -5.92382 v 6.996094 q 0,1.037109 0.0176,1.810547 0.0176,0.773437 0.28125,1.388672 0.2461,0.615234 0.86133,0.984375 0.63282,0.351562 1.82813,0.351562 0.49219,0 1.2832,-0.210937 0.80859,-0.210938 1.125,-0.386719 h 0.52734 z"
         id="path527" />
      <path
         d="m 180.74219,40.650532 h -6.71485 V 23.125141 l -4.85156,11.373047 h -4.6582 l -4.85156,-11.373047 v 17.525391 h -6.36329 V 14.476704 h 7.83985 l 5.88867,13.130859 5.87109,-13.130859 h 7.83985 z"
         id="path529" />
      <path
         d="M 199.02344,35.500141 V 31.38686 q -1.28321,0.105469 -2.77735,0.298828 -1.49414,0.175782 -2.26757,0.421875 -0.94922,0.298828 -1.45899,0.878907 -0.49219,0.5625 -0.49219,1.49414 0,0.615235 0.10547,1.001953 0.10547,0.386719 0.52735,0.738282 0.40429,0.351562 0.96679,0.527343 0.5625,0.158203 1.75782,0.158203 0.94921,0 1.91601,-0.386718 0.98438,-0.386719 1.72266,-1.019532 z m 0,3.058594 q -0.50977,0.386719 -1.26563,0.931641 -0.75586,0.544922 -1.42383,0.861328 -0.93164,0.421875 -1.93359,0.615234 -1.00195,0.210938 -2.19727,0.210938 -2.8125,0 -4.71093,-1.740235 -1.89844,-1.740234 -1.89844,-4.447265 0,-2.16211 0.9668,-3.533203 0.96679,-1.371094 2.74218,-2.16211 1.75782,-0.791015 4.35938,-1.125 2.60156,-0.333984 5.39648,-0.492187 v -0.105469 q 0,-1.634766 -1.33593,-2.25 -1.33594,-0.632812 -3.9375,-0.632812 -1.56446,0 -3.33985,0.5625 -1.77539,0.544921 -2.54883,0.84375 h -0.58007 v -4.763672 q 1.00195,-0.263672 3.25195,-0.615235 2.26758,-0.36914 4.53516,-0.36914 5.39648,0 7.7871,1.669922 2.40821,1.652343 2.40821,5.203125 v 13.429687 h -6.27539 z"
         id="path531" />
      <path
         d="m 231.75391,40.650532 h -7.38282 l -4.21875,-5.90625 -4.32422,5.90625 h -7.24218 l 7.78711,-9.861328 -7.66407,-9.878906 h 7.38282 l 4.14843,5.800781 4.16602,-5.800781 h 7.25977 l -7.68165,9.720703 z"
         id="path533" />
    </g>
  </g>
</svg>
