<?xml version="1.0" encoding="UTF-8" standalone="no"?>
<!-- Created with Inkscape (http://www.inkscape.org/) -->

<svg
   width="230"
   height="96"
   viewBox="0 0 60.854168 25.399999"
   version="1.1"
   id="svg5"
   inkscape:version="1.1.2 (b8e25be8, 2022-02-05)"
   sodipodi:docname="logo.svg"
   xmlns:inkscape="http://www.inkscape.org/namespaces/inkscape"
   xmlns:sodipodi="http://sodipodi.sourceforge.net/DTD/sodipodi-0.dtd"
   xmlns="http://www.w3.org/2000/svg"
   xmlns:svg="http://www.w3.org/2000/svg">
  <sodipodi:namedview
     id="namedview7"
     pagecolor="#505050"
     bordercolor="#eeeeee"
     borderopacity="1"
     inkscape:pageshadow="0"
     inkscape:pageopacity="0"
     inkscape:pagecheckerboard="true"
     inkscape:document-units="px"
     showgrid="false"
     units="px"
     inkscape:zoom="3.0744668"
     inkscape:cx="102.94468"
     inkscape:cy="76.923908"
     inkscape:window-width="1490"
     inkscape:window-height="933"
     inkscape:window-x="1697"
     inkscape:window-y="111"
     inkscape:window-maximized="0"
     inkscape:current-layer="layer1" />
  <defs
     id="defs2">
    <rect
       x="6.2448939"
       y="7.8061174"
       width="240.42842"
       height="74.938727"
       id="rect6030" />
    <filter
       style="color-interpolation-filters:sRGB;"
       inkscape:label="Drop Shadow"
       id="filter18597"
       x="-0.010803397"
       y="-0.068991073"
       width="1.0274586"
       height="1.1724777">
      <feFlood
         flood-opacity="0.498039"
         flood-color="rgb(0,0,0)"
         result="flood"
         id="feFlood18587" />
      <feComposite
         in="flood"
         in2="SourceGraphic"
         operator="in"
         result="composite1"
         id="feComposite18589" />
      <feGaussianBlur
         in="composite1"
         stdDeviation="1"
         result="blur"
         id="feGaussianBlur18591" />
      <feOffset
         dx="1.3"
         dy="1.2"
         result="offset"
         id="feOffset18593" />
      <feComposite
         in="SourceGraphic"
         in2="offset"
         operator="over"
         result="composite2"
         id="feComposite18595" />
    </filter>
  </defs>
  <g
     inkscape:label="Layer 1"
     inkscape:groupmode="layer"
     id="layer1">
    <path
       id="path846"
       style="display:inline;fill:#88ff92;fill-opacity:1;stroke:#000000;stroke-width:0.0211667;stroke-linecap:round;paint-order:stroke fill markers"
       d="M 9.7395851,20.58928 A 6.6091794,24.784422 77.513771 0 0 27.943352,18.730369 6.6091794,24.784422 77.513771 0 0 50.712694,6.9187411 6.6091794,24.784422 77.513771 0 0 25.085487,5.8246952 6.6091794,24.784422 77.513771 0 0 7.806401,11.821079 a 6.6091794,24.784422 77.513771 0 1 0.09276,0.0054 6.6091794,24.784422 77.513771 0 1 0.375914,0.02685 6.6091794,24.784422 77.513771 0 1 0.3671674,0.03037 6.6091794,24.784422 77.513771 0 1 0.3591488,0.03479 6.6091794,24.784422 77.513771 0 1 0.3505139,0.03882 6.6091794,24.784422 77.513771 0 1 0.3412628,0.04246 6.6091794,24.784422 77.513771 0 1 0.3331331,0.04638 6.6091794,24.784422 77.513771 0 1 0.323881,0.05001 6.6091794,24.784422 77.513771 0 1 0.314238,0.05427 6.6091794,24.784422 77.513771 0 1 0.30549,0.05779 6.6091794,24.784422 77.513771 0 1 0.295736,0.06154 6.6091794,24.784422 77.513771 0 1 0.285979,0.06529 6.6091794,24.784422 77.513771 0 1 0.276224,0.06904 6.6091794,24.784422 77.513771 0 1 0.266468,0.07278 6.6091794,24.784422 77.513771 0 1 0.256601,0.07603 6.6091794,24.784422 77.513771 0 1 0.246341,0.07989 6.6091794,24.784422 77.513771 0 1 0.236081,0.08375 6.6091794,24.784422 77.513771 0 1 0.225708,0.0871 6.6091794,24.784422 77.513771 0 1 0.214832,0.09057 6.6091794,24.784422 77.513771 0 1 0.204461,0.09393 6.6091794,24.784422 77.513771 0 1 0.1942,0.09779 6.6091794,24.784422 77.513771 0 1 0.183211,0.100748 6.6091794,24.784422 77.513771 0 1 0.17172,0.103822 6.6091794,24.784422 77.513771 0 1 0.161458,0.107681 6.6091794,24.784422 77.513771 0 1 0.15036,0.11014 6.6091794,24.784422 77.513771 0 1 0.138978,0.113718 6.6091794,24.784422 77.513771 0 1 0.128101,0.117186 6.6091794,24.784422 77.513771 0 1 0.116497,0.119756 6.6091794,24.784422 77.513771 0 1 0.105509,0.122718 6.6091794,24.784422 77.513771 0 1 0.09402,0.125792 6.6091794,24.784422 77.513771 0 1 0.08303,0.128755 6.6091794,24.784422 77.513771 0 1 0.07142,0.131324 6.6091794,24.784422 77.513771 0 1 0.05993,0.134399 6.6091794,24.784422 77.513771 0 1 0.04822,0.136463 6.6091794,24.784422 77.513771 0 1 0.03723,0.139427 6.6091794,24.784422 77.513771 0 1 0.04155,0.433809 6.6091794,24.784422 77.513771 0 1 -0.06233,0.454695 6.6091794,24.784422 77.513771 0 1 -0.165534,0.473844 6.6091794,24.784422 77.513771 0 1 -0.268681,0.490863 6.6091794,24.784422 77.513771 0 1 -0.370256,0.505417 6.6091794,24.784422 77.513771 0 1 -0.469925,0.519019 6.6091794,24.784422 77.513771 0 1 -0.56875,0.529259 6.6091794,24.784422 77.513771 0 1 -0.663763,0.537596 6.6091794,24.784422 77.513771 0 1 -0.756589,0.543863 6.6091794,24.784422 77.513771 0 1 -0.846328,0.547325 6.6091794,24.784422 77.513771 0 1 -0.932256,0.548887 6.6091794,24.784422 77.513771 0 1 -0.4197661,0.226862 z"
       sodipodi:insensitive="true"
       inkscape:label="back" />
    <text
       xml:space="preserve"
       transform="matrix(0.26458333,0,0,0.26458333,-1.3553141,5.3699582)"
       id="text6028"
       style="font-style:normal;font-variant:normal;font-weight:bold;font-stretch:normal;font-size:36px;font-family:sans-serif;-inkscape-font-specification:'sans-serif, Bold';font-variant-ligatures:normal;font-variant-caps:normal;font-variant-numeric:normal;font-variant-east-asian:normal;white-space:pre;shape-inside:url(#rect6030);display:inline;opacity:1;fill:#e9a751;fill-opacity:1;stroke:none;stroke-width:0.08;stroke-linecap:round;stroke-opacity:1;paint-order:stroke fill markers;filter:url(#filter18597)"
       inkscape:label="text"><tspan
         sodipodi:role="line"
         id="tspan6032"
         style="font-style:normal;font-variant:normal;font-weight:bold;font-stretch:normal;font-size:36px;font-family:sans-serif;-inkscape-font-specification:'sans-serif, Bold';font-variant-ligatures:normal;font-variant-caps:normal;font-variant-numeric:normal;font-variant-east-asian:normal;fill:#e9a751;fill-opacity:1;stroke:none;stroke-opacity:1">BudgetMax</tspan></text>
  </g>
</svg>
